<?xml version="1.0" encoding="utf-8"?>
<!-- Generator: Adobe Illustrator 28.0.0, SVG Export Plug-In . SVG Version: 6.00 Build 0)  -->
<svg version="1.1" id="Layer_1" xmlns="http://www.w3.org/2000/svg" xmlns:xlink="http://www.w3.org/1999/xlink" x="0px" y="0px"
	 viewBox="0 0 36 36" style="enable-background:new 0 0 36 36;" xml:space="preserve">
<path d="M3,36c-0.8,0-1.5-0.3-2.1-0.9C0.3,34.5,0,33.8,0,33v-8.6h3V33h8.6v3H3z M24.4,36v-3H33v-8.6h3V33c0,0.8-0.3,1.5-0.9,2.1
	C34.5,35.7,33.8,36,33,36H24.4z M18,23.2c-1.5,0-2.7-0.5-3.7-1.5s-1.5-2.2-1.5-3.7s0.5-2.7,1.5-3.7s2.2-1.5,3.7-1.5s2.7,0.5,3.7,1.5
	s1.5,2.2,1.5,3.7c0,1.5-0.5,2.7-1.5,3.7S19.5,23.2,18,23.2z M18,20.2c0.6,0,1.1-0.2,1.5-0.6c0.4-0.4,0.6-1,0.7-1.6s-0.2-1.1-0.6-1.5
	c-0.4-0.4-1-0.6-1.6-0.7s-1.1,0.2-1.5,0.6c-0.4,0.4-0.6,1-0.7,1.6s0.2,1.1,0.6,1.5C16.9,20,17.4,20.2,18,20.2z M0,11.6V3
	c0-0.8,0.3-1.5,0.9-2.1S2.2,0,3,0h8.6v3H3v8.6H0z M33,11.6V3h-8.6V0H33c0.8,0,1.5,0.3,2.1,0.9C35.7,1.5,36,2.2,36,3v8.6H33z"/>
</svg>
