<?xml version="1.0" encoding="utf-8"?>
<!-- Generator: Adobe Illustrator 28.0.0, SVG Export Plug-In . SVG Version: 6.00 Build 0)  -->
<svg version="1.1" id="Layer_1" xmlns="http://www.w3.org/2000/svg" xmlns:xlink="http://www.w3.org/1999/xlink" x="0px" y="0px"
	 viewBox="0 0 64 80" style="enable-background:new 0 0 64 80;" xml:space="preserve">
<style type="text/css">
	.st0{fill:#4F4F4F;}
</style>
<path class="st0" d="M15.9,63h32.2v-6H15.9V63z M15.9,46h32.2v-6H15.9V46z M6,80c-1.6,0-3-0.6-4.2-1.8C0.6,77,0,75.6,0,74V6
	c0-1.6,0.6-3,1.8-4.2S4.4,0,6,0h36.1L64,21.9V74c0,1.6-0.6,3-1.8,4.2C61,79.4,59.6,80,58,80H6z M39.1,24.6V6H6v68h52V24.6H39.1z
	 M6,6v18.6V6v68V6z"/>
</svg>
