<?xml version="1.0" encoding="utf-8"?>
<!-- Generator: Adobe Illustrator 28.0.0, SVG Export Plug-In . SVG Version: 6.00 Build 0)  -->
<svg version="1.1" id="Layer_1" xmlns="http://www.w3.org/2000/svg" xmlns:xlink="http://www.w3.org/1999/xlink" x="0px" y="0px"
	 viewBox="0 0 18.3 18.3" style="enable-background:new 0 0 18.3 18.3;" xml:space="preserve">
<style type="text/css">
	.st0{fill:#8C8C8C;}
</style>
<g id="surface1">
	<path class="st0" d="M1.5,16.8h1.1L13.7,5.8l-1.1-1.1L1.5,15.7V16.8z M16.9,4.7l-3.2-3.2l1.1-1C15,0.1,15.3,0,15.8,0
		s0.8,0.1,1.1,0.4l1.1,1.1c0.3,0.3,0.4,0.6,0.4,1.1s-0.1,0.8-0.4,1.1L16.9,4.7z M15.8,5.7L3.2,18.3H0v-3.2L12.6,2.5L15.8,5.7z
		 M13.1,5.2l-0.6-0.6l1.1,1.1L13.1,5.2z"/>
</g>
</svg>
