<?xml version="1.0" encoding="utf-8"?>
<!-- Generator: Adobe Illustrator 28.0.0, SVG Export Plug-In . SVG Version: 6.00 Build 0)  -->
<svg version="1.1" id="Layer_1" xmlns="http://www.w3.org/2000/svg" xmlns:xlink="http://www.w3.org/1999/xlink" x="0px" y="0px"
	 viewBox="0 0 394 394" style="enable-background:new 0 0 394 394;" xml:space="preserve">
<style type="text/css">
	.st0{fill:#FFFFFF;}
	.st1{fill-rule:evenodd;clip-rule:evenodd;fill:#FFFFFF;}
</style>
<g>
	<circle cx="197" cy="197" r="197"/>
	<path class="st0" d="M306.5,267.2c0.2-1.7,0.3-3.5,0.3-5.3v-21.7H200.2v27h79.1c-2.4,14.9-15.2,26.4-30.6,27v-0.1h-48.4v-26.9h-27
		l-27-13.6v27l27,13.6h27v27.2h48.4v-0.2c30.3-0.7,55.2-24.2,57.9-54.1L306.5,267.2L306.5,267.2z"/>
	<path class="st0" d="M140.8,208.2c17.7,0,32.2,14.4,32.3,32.1h27c-0.1-32.4-26.3-58.7-58.6-59.1h-55V263
		c0.6,32.3,27,58.3,59.4,58.3h0.3v-27h-0.3c-17.8,0-32.2-14.4-32.4-32.1v-54.1h27.3V208.2z"/>
	<path class="st1" d="M86.5,132.4c0-1.8,0.1-3.5,0.3-5.3V127c2.7-29.8,27.5-53.4,57.9-54.1v-0.2H193v27.2h27l27,13.6v27l-27-13.6
		h-27v27h27c0.1,17.7,14.6,32.1,32.3,32.1h27.3v-54.1c-0.2-17.7-14.6-32.1-32.4-32.1h-0.3V73h0.3c32.4,0,58.8,26.1,59.4,58.3v81.9
		h-55.1c-32.3-0.4-58.5-26.8-58.6-59.1H86.5V132.4z M193,127.1v-26.9h-48.4v-0.1c-15.4,0.6-28.2,12.1-30.6,27H193z"/>
</g>
</svg>
