<?xml version="1.0" encoding="utf-8"?>
<!-- Generator: Adobe Illustrator 28.1.0, SVG Export Plug-In . SVG Version: 6.00 Build 0)  -->
<svg version="1.1" id="Layer_1" focusable="false" xmlns="http://www.w3.org/2000/svg" xmlns:xlink="http://www.w3.org/1999/xlink"
	 x="0px" y="0px" viewBox="0 0 1049.4 1049.4" style="enable-background:new 0 0 1049.4 1049.4;" xml:space="preserve">
<style type="text/css">
	.st0{fill-opacity:0.87;}
</style>
<path class="st0" d="M750,660h-47.4l-16.8-16.2C744.6,575.4,780,486.6,780,390C780,174.6,605.4,0,390,0C174.6,0,0,174.6,0,390
	c0,215.4,174.6,390,390,390c96.6,0,185.4-35.4,253.8-94.2l16.2,16.8V750l300,299.4l89.4-89.4L750,660z M390,660
	c-149.4,0-270-120.6-270-270s120.6-270,270-270s270,120.6,270,270S539.4,660,390,660z"/>
</svg>
