<svg width="48" height="48" viewBox="0 0 48 48" fill="none" xmlns="http://www.w3.org/2000/svg">
<path d="M21.935 29.37L31.84 19.465L30.23 17.89L21.935 26.185L17.735 21.985L16.16 23.56L21.935 29.37ZM24 37C22.0867 37 20.2783 36.6325 18.575 35.8975C16.8717 35.1625 15.3842 34.1592 14.1125 32.8875C12.8408 31.6158 11.8375 30.1283 11.1025 28.425C10.3675 26.7217 10 24.9133 10 23C10 21.0633 10.3675 19.2433 11.1025 17.54C11.8375 15.8367 12.8408 14.355 14.1125 13.095C15.3842 11.835 16.8717 10.8375 18.575 10.1025C20.2783 9.3675 22.0867 9 24 9C25.9367 9 27.7567 9.3675 29.46 10.1025C31.1633 10.8375 32.645 11.835 33.905 13.095C35.165 14.355 36.1625 15.8367 36.8975 17.54C37.6325 19.2433 38 21.0633 38 23C38 24.9133 37.6325 26.7217 36.8975 28.425C36.1625 30.1283 35.165 31.6158 33.905 32.8875C32.645 34.1592 31.1633 35.1625 29.46 35.8975C27.7567 36.6325 25.9367 37 24 37ZM24 34.9C27.3133 34.9 30.125 33.7392 32.435 31.4175C34.745 29.0958 35.9 26.29 35.9 23C35.9 19.6867 34.745 16.875 32.435 14.565C30.125 12.255 27.3133 11.1 24 11.1C20.71 11.1 17.9042 12.255 15.5825 14.565C13.2608 16.875 12.1 19.6867 12.1 23C12.1 26.29 13.2608 29.0958 15.5825 31.4175C17.9042 33.7392 20.71 34.9 24 34.9Z" fill="#1EB852"/>
<path d="M0 4C0 1.79086 1.79086 0 4 0H44C46.2091 0 48 1.79086 48 4V44C48 46.2091 46.2091 48 44 48H4C1.79086 48 0 46.2091 0 44V4Z" fill="#1EB852" fill-opacity="0.08"/>
</svg>
