<svg width="48" height="48" viewBox="0 0 48 48" fill="none" xmlns="http://www.w3.org/2000/svg">
<rect width="48" height="48" rx="4" fill="#1E45B8" fill-opacity="0.08"/>
<path d="M14.5 18.0625H31.125V15.6875H14.5V18.0625ZM14.5 34.6875C13.8469 34.6875 13.2878 34.4549 12.8227 33.9898C12.3576 33.5247 12.125 32.9656 12.125 32.3125V15.6875C12.125 15.0344 12.3576 14.4753 12.8227 14.0102C13.2878 13.5451 13.8469 13.3125 14.5 13.3125H15.6875V10.9375H18.0625V13.3125H27.5625V10.9375H29.9375V13.3125H31.125C31.7781 13.3125 32.3372 13.5451 32.8023 14.0102C33.2674 14.4753 33.5 15.0344 33.5 15.6875V22.4266C33.124 22.2484 32.738 22.1 32.3422 21.9812C31.9464 21.8625 31.5406 21.7734 31.125 21.7141V20.4375H14.5V32.3125H21.9812C22.1198 32.7479 22.2831 33.1635 22.4711 33.5594C22.6591 33.9552 22.8818 34.3312 23.1391 34.6875H14.5ZM29.9375 35.875C28.2948 35.875 26.8945 35.2961 25.7367 34.1383C24.5789 32.9805 24 31.5802 24 29.9375C24 28.2948 24.5789 26.8945 25.7367 25.7367C26.8945 24.5789 28.2948 24 29.9375 24C31.5802 24 32.9805 24.5789 34.1383 25.7367C35.2961 26.8945 35.875 28.2948 35.875 29.9375C35.875 31.5802 35.2961 32.9805 34.1383 34.1383C32.9805 35.2961 31.5802 35.875 29.9375 35.875ZM31.9266 32.7578L32.7578 31.9266L30.5312 29.7V26.375H29.3437V30.175L31.9266 32.7578Z" fill="#1E45B8"/>
</svg>
