<svg width="500" height="500" viewBox="0 0 500 500" fill="none" xmlns="http://www.w3.org/2000/svg">
<rect width="500" height="500" rx="19" fill="#1EB852" fill-opacity="0.08"/>
<mask id="mask0_33_13" style="mask-type:luminance" maskUnits="userSpaceOnUse" x="114" y="103" width="291" height="291">
<path d="M405 103.562H114.562V394H405V103.562Z" fill="white"/>
</mask>
<g mask="url(#mask0_33_13)">
<path d="M142.084 297.188C137.445 297.188 133.26 295.322 129.528 291.591C125.797 287.859 123.931 283.674 123.931 279.035V121.715C123.931 117.076 125.797 112.891 129.528 109.16C133.26 105.428 137.445 103.562 142.084 103.562H227.098L245.25 121.715H347.81C352.45 121.715 356.635 123.58 360.365 127.312C364.097 131.044 365.962 135.229 365.962 139.867H237.384L219.231 121.715H142.084V279.035L172.942 158.02H384.115L351.743 283.27C350.534 288.111 348.315 291.641 345.087 293.86C341.861 296.079 337.725 297.188 332.683 297.188H142.084ZM161.144 279.035H334.196L359.609 176.172H186.557L161.144 279.035Z" fill="#1EB852"/>
<path d="M165.744 376.845C165.744 375.473 165.53 374.253 165.103 373.185C164.707 372.118 163.99 371.142 162.953 370.257C161.917 369.373 160.452 368.519 158.562 367.696C156.701 366.841 154.322 365.973 151.426 365.088C148.253 364.112 145.325 363.029 142.642 361.84C139.989 360.62 137.671 359.217 135.688 357.632C133.706 356.015 132.166 354.17 131.068 352.096C129.97 349.991 129.421 347.567 129.421 344.822C129.421 342.108 129.986 339.638 131.114 337.412C132.273 335.185 133.905 333.264 136.009 331.647C138.143 330 140.66 328.735 143.557 327.851C146.454 326.935 149.657 326.478 153.163 326.478C158.105 326.478 162.359 327.392 165.927 329.222C169.525 331.052 172.285 333.508 174.207 336.588C176.159 339.668 177.135 343.069 177.135 346.789H165.744C165.744 344.594 165.271 342.657 164.326 340.979C163.411 339.271 162.008 337.93 160.117 336.953C158.256 335.978 155.894 335.49 153.027 335.49C150.312 335.49 148.056 335.901 146.256 336.725C144.457 337.548 143.114 338.661 142.23 340.065C141.345 341.467 140.903 343.054 140.903 344.822C140.903 346.072 141.193 347.216 141.773 348.253C142.352 349.26 143.236 350.205 144.426 351.089C145.616 351.944 147.11 352.751 148.909 353.514C150.709 354.277 152.828 355.008 155.268 355.71C158.958 356.808 162.175 358.028 164.921 359.37C167.666 360.681 169.953 362.176 171.782 363.853C173.612 365.531 174.985 367.436 175.9 369.571C176.814 371.676 177.273 374.069 177.273 376.754C177.273 379.56 176.708 382.09 175.58 384.347C174.452 386.574 172.835 388.48 170.73 390.066C168.657 391.621 166.155 392.826 163.228 393.68C160.331 394.503 157.097 394.915 153.53 394.915C150.327 394.915 147.171 394.488 144.06 393.634C140.98 392.78 138.174 391.483 135.643 389.746C133.111 387.977 131.099 385.781 129.604 383.158C128.11 380.505 127.362 377.409 127.362 373.872H138.845C138.845 376.037 139.211 377.882 139.943 379.407C140.706 380.931 141.758 382.182 143.099 383.158C144.441 384.104 145.996 384.805 147.765 385.263C149.565 385.72 151.486 385.948 153.53 385.948C156.213 385.948 158.455 385.567 160.255 384.805C162.085 384.043 163.457 382.975 164.372 381.603C165.287 380.23 165.744 378.644 165.744 376.845ZM199.847 327.392V394H188.364V327.392H199.847ZM227.021 356.534V365.637H196.919V356.534H227.021ZM230.818 327.392V336.542H196.919V327.392H230.818ZM269.221 327.392V394H257.831V327.392H269.221ZM290.128 327.392V336.542H237.107V327.392H290.128ZM325.146 369.159H307.808V360.056H325.146C328.165 360.056 330.605 359.568 332.466 358.592C334.326 357.616 335.683 356.274 336.537 354.566C337.422 352.828 337.864 350.846 337.864 348.619C337.864 346.514 337.422 344.548 336.537 342.718C335.683 340.857 334.326 339.363 332.466 338.235C330.605 337.106 328.165 336.542 325.146 336.542H311.33V394H299.848V327.392H325.146C330.3 327.392 334.677 328.308 338.275 330.137C341.905 331.937 344.665 334.438 346.555 337.64C348.446 340.812 349.391 344.441 349.391 348.528C349.391 352.828 348.446 356.518 346.555 359.598C344.665 362.679 341.905 365.042 338.275 366.69C334.677 368.336 330.3 369.159 325.146 369.159Z" fill="#1EB852" fill-opacity="0.87"/>
</g>
</svg>
