<svg width="120" height="120" viewBox="0 0 120 120" fill="none" xmlns="http://www.w3.org/2000/svg">
<rect opacity="0.6" width="120" height="120" rx="4" fill="#1E45B8" fill-opacity="0.1"/>
<path d="M64.3423 78.7079C63.4819 79.5693 62.4423 80 61.2235 80C60.0047 80 58.9651 79.5693 58.1047 78.7079L31.2188 51.7884C30.7409 51.3098 30.4182 50.8073 30.2509 50.2809C30.0836 49.7545 30 49.2041 30 48.6298V26.8071C30 25.5628 30.4063 24.5339 31.2188 23.7203C32.0314 22.9068 33.059 22.5 34.3017 22.5H56.0973C56.6708 22.5 57.2444 22.5837 57.818 22.7512C58.3915 22.9187 58.9173 23.2418 59.3953 23.7203L86.1378 50.4963C87.0459 51.4055 87.5 52.4704 87.5 53.6907C87.5 54.911 87.0459 55.9759 86.1378 56.8851L64.3423 78.7079ZM61.4027 75.7647L83.1983 53.9419L56.0973 26.8071H34.3017V48.6298L61.4027 75.7647ZM41.8298 38.0056C42.8335 38.0056 43.7058 37.6347 44.4467 36.8929C45.1876 36.1512 45.558 35.2778 45.558 34.2728C45.558 33.2678 45.1876 32.3944 44.4467 31.6526C43.7058 30.9108 42.8335 30.54 41.8298 30.54C40.8261 30.54 39.9538 30.9108 39.2129 31.6526C38.472 32.3944 38.1016 33.2678 38.1016 34.2728C38.1016 35.2778 38.472 36.1512 39.2129 36.8929C39.9538 37.6347 40.8261 38.0056 41.8298 38.0056Z" fill="#1E45B8"/>
<path d="M37.9424 75.6719V97H34.2949V75.6719H37.9424ZM44.6367 75.6719V78.6016H27.6592V75.6719H44.6367ZM54.1703 93.8213V86.2627C54.1703 85.6963 54.0678 85.208 53.8627 84.7979C53.6576 84.3877 53.3451 84.0703 52.9252 83.8457C52.515 83.6211 51.9975 83.5088 51.3725 83.5088C50.7963 83.5088 50.2982 83.6064 49.8783 83.8018C49.4584 83.9971 49.1313 84.2607 48.8969 84.5928C48.6625 84.9248 48.5453 85.3008 48.5453 85.7207H45.0297C45.0297 85.0957 45.1811 84.4902 45.4838 83.9043C45.7865 83.3184 46.226 82.7959 46.8021 82.3369C47.3783 81.8779 48.0668 81.5166 48.8676 81.2529C49.6684 80.9893 50.5668 80.8574 51.5629 80.8574C52.7543 80.8574 53.809 81.0576 54.727 81.458C55.6547 81.8584 56.3822 82.4639 56.9096 83.2744C57.4467 84.0752 57.7152 85.0811 57.7152 86.292V93.3379C57.7152 94.0605 57.7641 94.71 57.8617 95.2861C57.9691 95.8525 58.1205 96.3457 58.3158 96.7656V97H54.6977C54.5316 96.6191 54.3998 96.1357 54.3021 95.5498C54.2143 94.9541 54.1703 94.3779 54.1703 93.8213ZM54.683 87.3613L54.7123 89.5439H52.1781C51.5238 89.5439 50.9477 89.6074 50.4496 89.7344C49.9516 89.8516 49.5365 90.0273 49.2045 90.2617C48.8725 90.4961 48.6234 90.7793 48.4574 91.1113C48.2914 91.4434 48.2084 91.8193 48.2084 92.2393C48.2084 92.6592 48.3061 93.0449 48.5014 93.3965C48.6967 93.7383 48.9799 94.0068 49.351 94.2021C49.7318 94.3975 50.1908 94.4951 50.7279 94.4951C51.4506 94.4951 52.0805 94.3486 52.6176 94.0557C53.1645 93.7529 53.5941 93.3867 53.9066 92.957C54.2191 92.5176 54.3852 92.1025 54.4047 91.7119L55.5473 93.2793C55.4301 93.6797 55.2299 94.1094 54.9467 94.5684C54.6635 95.0273 54.2924 95.4668 53.8334 95.8867C53.3842 96.2969 52.8422 96.6338 52.2074 96.8975C51.5824 97.1611 50.8598 97.293 50.0395 97.293C49.0043 97.293 48.0814 97.0879 47.2709 96.6777C46.4604 96.2578 45.8256 95.6963 45.3666 94.9932C44.9076 94.2803 44.6781 93.4746 44.6781 92.5762C44.6781 91.7363 44.8344 90.9941 45.1469 90.3496C45.4691 89.6953 45.9379 89.1484 46.5531 88.709C47.1781 88.2695 47.9398 87.9375 48.8383 87.7129C49.7367 87.4785 50.7621 87.3613 51.9145 87.3613H54.683ZM71.658 81.1504H74.866V96.5605C74.866 97.9863 74.5633 99.1973 73.9578 100.193C73.3523 101.189 72.5076 101.946 71.4236 102.464C70.3396 102.991 69.0848 103.255 67.659 103.255C67.0535 103.255 66.3797 103.167 65.6375 102.991C64.9051 102.815 64.1922 102.532 63.4988 102.142C62.8152 101.761 62.2439 101.258 61.785 100.633L63.4402 98.5527C64.0066 99.2266 64.6316 99.7197 65.3152 100.032C65.9988 100.345 66.7166 100.501 67.4686 100.501C68.2791 100.501 68.9676 100.35 69.534 100.047C70.1102 99.7539 70.5545 99.3193 70.867 98.7432C71.1795 98.167 71.3357 97.4639 71.3357 96.6338V84.7393L71.658 81.1504ZM60.8914 89.251V88.9434C60.8914 87.7422 61.0379 86.6484 61.3309 85.6621C61.6238 84.666 62.0438 83.8115 62.5906 83.0986C63.1375 82.376 63.8016 81.8242 64.5828 81.4434C65.3641 81.0527 66.2479 80.8574 67.2342 80.8574C68.2596 80.8574 69.1336 81.043 69.8563 81.4141C70.5887 81.7852 71.199 82.3174 71.6873 83.0107C72.1756 83.6943 72.5564 84.5146 72.8299 85.4717C73.1131 86.4189 73.323 87.4736 73.4598 88.6357V89.6172C73.3328 90.75 73.118 91.7852 72.8152 92.7227C72.5125 93.6602 72.1121 94.4707 71.6141 95.1543C71.116 95.8379 70.5008 96.3652 69.7684 96.7363C69.0457 97.1074 68.1912 97.293 67.2049 97.293C66.2381 97.293 65.3641 97.0928 64.5828 96.6924C63.8113 96.292 63.1473 95.7305 62.5906 95.0078C62.0438 94.2852 61.6238 93.4355 61.3309 92.459C61.0379 91.4727 60.8914 90.4033 60.8914 89.251ZM64.4217 88.9434V89.251C64.4217 89.9736 64.49 90.6475 64.6268 91.2725C64.7732 91.8975 64.993 92.4492 65.2859 92.9277C65.5887 93.3965 65.9695 93.7676 66.4285 94.041C66.8973 94.3047 67.449 94.4365 68.0838 94.4365C68.9139 94.4365 69.5926 94.2607 70.1199 93.9092C70.657 93.5576 71.0672 93.084 71.3504 92.4883C71.6434 91.8828 71.8484 91.209 71.9656 90.4668V87.8154C71.907 87.2393 71.785 86.7021 71.5994 86.2041C71.4236 85.7061 71.1844 85.2715 70.8816 84.9004C70.5789 84.5195 70.198 84.2266 69.7391 84.0215C69.2801 83.8066 68.7381 83.6992 68.1131 83.6992C67.4783 83.6992 66.9266 83.8359 66.4578 84.1094C65.9891 84.3828 65.6033 84.7588 65.3006 85.2373C65.0076 85.7158 64.7879 86.2725 64.6414 86.9072C64.4949 87.542 64.4217 88.2207 64.4217 88.9434ZM87.5197 92.708C87.5197 92.3564 87.4318 92.0391 87.2561 91.7559C87.0803 91.4629 86.7434 91.1992 86.2453 90.9648C85.757 90.7305 85.0344 90.5156 84.0773 90.3203C83.2375 90.1348 82.466 89.915 81.7629 89.6611C81.0695 89.3975 80.4738 89.0801 79.9758 88.709C79.4777 88.3379 79.092 87.8984 78.8186 87.3906C78.5451 86.8828 78.4084 86.2969 78.4084 85.6328C78.4084 84.9883 78.55 84.3779 78.8332 83.8018C79.1164 83.2256 79.5217 82.7178 80.049 82.2783C80.5764 81.8389 81.216 81.4922 81.968 81.2383C82.7297 80.9844 83.5793 80.8574 84.5168 80.8574C85.8449 80.8574 86.9826 81.082 87.9299 81.5312C88.8869 81.9707 89.6193 82.5713 90.1271 83.333C90.635 84.085 90.8889 84.9346 90.8889 85.8818H87.3586C87.3586 85.4619 87.2512 85.0713 87.0363 84.71C86.8312 84.3389 86.5187 84.041 86.0988 83.8164C85.6789 83.582 85.1516 83.4648 84.5168 83.4648C83.9113 83.4648 83.4084 83.5625 83.008 83.7578C82.6174 83.9434 82.3244 84.1875 82.1291 84.4902C81.9436 84.793 81.8508 85.125 81.8508 85.4863C81.8508 85.75 81.8996 85.9893 81.9973 86.2041C82.1047 86.4092 82.2805 86.5996 82.5246 86.7754C82.7687 86.9414 83.1008 87.0977 83.5207 87.2441C83.9504 87.3906 84.4875 87.5322 85.132 87.6689C86.343 87.9229 87.383 88.25 88.2521 88.6504C89.1311 89.041 89.8049 89.5488 90.2736 90.1738C90.7424 90.7891 90.9768 91.5703 90.9768 92.5176C90.9768 93.2207 90.8254 93.8652 90.5227 94.4512C90.2297 95.0273 89.8 95.5303 89.2336 95.96C88.6672 96.3799 87.9885 96.707 87.1975 96.9414C86.4162 97.1758 85.5373 97.293 84.5607 97.293C83.1252 97.293 81.9094 97.0391 80.9133 96.5312C79.9172 96.0137 79.1604 95.3545 78.6428 94.5537C78.135 93.7432 77.8811 92.9033 77.8811 92.0342H81.2941C81.3332 92.6885 81.5139 93.2109 81.8361 93.6016C82.1682 93.9824 82.5783 94.2607 83.0666 94.4365C83.5646 94.6025 84.0773 94.6855 84.6047 94.6855C85.2395 94.6855 85.7717 94.6025 86.2014 94.4365C86.6311 94.2607 86.9582 94.0264 87.1828 93.7334C87.4074 93.4307 87.5197 93.0889 87.5197 92.708Z" fill="#1E45B8"/>
</svg>
