<svg width="48" height="48" viewBox="0 0 48 48" fill="none" xmlns="http://www.w3.org/2000/svg">
<g clip-path="url(#clip0_101_2)">
<path d="M44 0H4C1.79086 0 0 1.79086 0 4V44C0 46.2091 1.79086 48 4 48H44C46.2091 48 48 46.2091 48 44V4C48 1.79086 46.2091 0 44 0Z" fill="#1E45B8" fill-opacity="0.08"/>
<path d="M24 32V29.875L29.3 24.575L31.425 26.7L26.125 32H24ZM15 27V25H22V27H15ZM32.125 26L30 23.875L30.725 23.15C30.9083 22.9667 31.1417 22.875 31.425 22.875C31.7083 22.875 31.9417 22.9667 32.125 23.15L32.85 23.875C33.0333 24.0583 33.125 24.2917 33.125 24.575C33.125 24.8583 33.0333 25.0917 32.85 25.275L32.125 26ZM15 23V21H26V23H15ZM15 19V17H26V19H15Z" fill="#1E45B8"/>
</g>
<defs>
<clipPath id="clip0_101_2">
<rect width="48" height="48" fill="white"/>
</clipPath>
</defs>
</svg>
